HIERARCHY
ROOT Hips
{
	OFFSET 0.0000 0.0000 0.0000
	CHANNELS 6 Xposition Yposition Zposition Zrotation Xrotation Yrotation
	JOINT Ab
	{
		OFFSET -0.0000 8.0846 -0.0000
		CHANNELS 3 Zrotation Xrotation Yrotation
		JOINT Chest
		{
			OFFSET -0.0000 25.0068 -0.0000
			CHANNELS 3 Zrotation Xrotation Yrotation
			JOINT Neck
			{
				OFFSET -0.0000 25.0068 0.0000
				CHANNELS 3 Zrotation Xrotation Yrotation
				JOINT Head
				{
					OFFSET -0.0000 10.7556 0.0000
					CHANNELS 3 Zrotation Xrotation Yrotation
					End Site
					{
						OFFSET -0.0000 16.6222 0.0000
					}
				}
			}
			JOINT LeftCollar
			{
				OFFSET -0.0000 25.0068 0.0000
				CHANNELS 3 Zrotation Xrotation Yrotation
				JOINT LeftShoulder
				{
					OFFSET 19.5556 -0.0000 0.0000
					CHANNELS 3 Zrotation Xrotation Yrotation
					JOINT LeftElbow
					{
						OFFSET 27.1828 0.0000 0.0000
						CHANNELS 3 Zrotation Xrotation Yrotation
						JOINT LeftWrist
						{
							OFFSET 23.3157 0.0000 0.0000
							CHANNELS 3 Zrotation Xrotation Yrotation
							End Site
							{
								OFFSET 0.0000 -14.6667 0.0000
							}
						}
					}
				}
			}
			JOINT RightCollar
			{
				OFFSET -0.0000 25.0068 0.0000
				CHANNELS 3 Zrotation Xrotation Yrotation
				JOINT RightShoulder
				{
					OFFSET -19.5556 0.0000 0.0000
					CHANNELS 3 Zrotation Xrotation Yrotation
					JOINT RightElbow
					{
						OFFSET -27.1828 0.0000 0.0000
						CHANNELS 3 Zrotation Xrotation Yrotation
						JOINT RightWrist
						{
							OFFSET -23.3157 0.0000 0.0000
							CHANNELS 3 Zrotation Xrotation Yrotation
							End Site
							{
								OFFSET -0.0000 -14.6667 0.0000
							}
						}
					}
				}
			}
		}
	}
	JOINT LeftHip
	{
		OFFSET 11.7333 0.0000 0.0000
		CHANNELS 3 Zrotation Xrotation Yrotation
		JOINT LeftKnee
		{
			OFFSET -0.0000 -40.8688 0.0000
			CHANNELS 3 Zrotation Xrotation Yrotation
			JOINT LeftAnkle
			{
				OFFSET -0.0000 -44.4337 0.0000
				CHANNELS 3 Zrotation Xrotation Yrotation
				End Site
				{
					OFFSET -0.0000 -4.8889 16.6222
				}
			}
		}
	}
	JOINT RightHip
	{
		OFFSET -11.7333 0.0000 0.0000
		CHANNELS 3 Zrotation Xrotation Yrotation
		JOINT RightKnee
		{
			OFFSET -0.0000 -40.8688 0.0000
			CHANNELS 3 Zrotation Xrotation Yrotation
			JOINT RightAnkle
			{
				OFFSET -0.0000 -44.4337 0.0000
				CHANNELS 3 Zrotation Xrotation Yrotation
				End Site
				{
					OFFSET -0.0000 -4.8889 16.6222
				}
			}
		}
	}
}
MOTION
Frames: 19
Frame Time: 0.010000
-4.5493 88.6362 187.3999 2.5940 359.9684 173.2760 2.0002 359.2639 357.9999 359.0594 11.7062 358.0845 2.0636 346.7897 2.3017 1.6671 12.3490 1.8796 339.2518 358.5222 8.0173 300.7950 30.5360 354.8349 15.7880 354.5823 322.3222 81.9824 1.3485 340.2593 22.4647 359.1997 355.9839 58.8674 42.7859 8.0104 338.2003 354.2974 28.9871 278.0612 351.8688 18.6158 1.9458 357.8127 358.0150 359.1755 9.6149 358.1390 359.6376 353.5220 21.9325 1.5892 351.5561 359.8861 358.7869 19.5326 8.6567 355.8580 345.8097 337.5021 
-4.5550 88.6365 187.3947 2.5915 359.9714 173.2820 2.0026 359.2826 358.0048 359.0545 11.6825 358.0893 2.0432 346.7915 2.2886 1.6814 12.3796 1.8672 339.2475 358.5295 8.0486 300.8246 30.6302 354.8063 15.7942 354.5682 322.3697 82.0032 1.2745 340.2199 22.4684 359.2121 355.9891 58.8685 42.7763 8.0109 338.4719 354.3771 29.2816 277.6826 352.7244 19.7245 1.9380 357.8197 358.0005 359.1768 9.6099 358.1235 359.6574 353.5226 21.9451 1.5840 351.5609 359.8717 358.7800 19.5407 8.6654 355.8708 345.7997 337.5032 
-4.5610 88.6364 187.3903 2.5882 359.9665 173.2925 2.0054 359.2896 358.0050 359.0544 11.6703 358.0904 2.0003 346.7709 2.2641 1.7123 12.4242 1.8422 339.2462 358.5234 8.0457 300.8227 30.6025 354.8125 15.7807 354.5765 322.3358 82.0173 1.2784 340.1762 22.4677 359.2084 355.9981 58.8888 42.7788 7.9933 338.3632 354.3190 29.1697 277.8206 352.4169 19.3070 1.9295 357.8143 357.9982 359.1798 9.6119 358.1107 359.6880 353.5219 21.9487 1.5780 351.5611 359.8721 358.7808 19.5392 8.6584 355.8497 345.7984 337.5060 
-4.5671 88.6363 187.3840 2.5850 359.9662 173.3076 2.0054 359.2958 358.0054 359.0573 11.6638 358.0904 1.9614 346.7497 2.2414 1.7405 12.4749 1.8191 339.2433 358.5233 8.0342 300.8225 30.5815 354.8259 15.7741 354.5915 322.3198 82.0122 1.2543 340.1583 22.4661 359.2001 356.0089 58.9189 42.7713 7.9632 338.2782 354.2802 29.1073 277.9199 352.2149 19.0489 1.9224 357.8171 357.9799 359.1768 9.6063 358.1087 359.7041 353.5262 21.9568 1.5708 351.5689 359.8631 358.7771 19.5355 8.6595 355.8342 345.7934 337.5105 
-4.5714 88.6369 187.3780 2.5839 359.9672 173.3225 2.0078 359.2991 358.0008 359.0563 11.6624 358.0848 1.9444 346.7502 2.2390 1.7659 12.5042 1.8178 339.2404 358.5376 8.0449 300.8329 30.6227 354.8143 15.7886 354.5908 322.3414 81.9879 1.2285 340.1714 22.4679 359.2123 356.0321 58.9443 42.7330 7.9363 338.5342 354.3697 29.4057 277.5450 353.0334 20.1949 1.9212 357.8256 357.9506 359.1621 9.5927 358.1245 359.6713 353.5256 21.9667 1.5670 351.5762 359.8620 358.7755 19.5328 8.6527 355.8160 345.7893 337.4983 
-4.5757 88.6365 187.3760 2.5813 359.9509 173.3427 2.0156 359.2960 357.9922 359.0467 11.6473 358.0770 1.9157 346.7486 2.2251 1.7889 12.5320 1.8029 339.2424 358.5120 8.0619 300.8343 30.6824 354.8097 15.8669 354.5605 322.3302 82.0014 1.2055 340.2213 22.4727 359.1985 356.0329 58.9433 42.7429 7.9472 338.5222 354.3311 29.3936 277.6056 353.0031 20.2345 1.9192 357.8004 357.9278 359.1579 9.6050 358.1274 359.6627 353.5130 21.9546 1.5609 351.5707 359.8722 358.7846 19.5262 8.6356 355.8144 345.7610 337.4676 
-4.5795 88.6372 187.3699 2.5772 359.9496 173.3555 2.0177 359.3037 357.9888 359.0367 11.6334 358.0754 1.8742 346.7498 2.2142 1.8456 12.5685 1.7914 339.2400 358.5238 8.0816 300.8511 30.7138 354.7996 15.8546 354.5713 322.3646 82.0610 1.1654 340.2375 22.4821 359.2043 356.0550 58.9475 42.7283 7.9255 338.5999 354.3422 29.4413 277.2255 353.3547 20.3378 1.9127 357.7963 357.9138 359.1387 9.5990 358.1907 359.7163 353.5246 21.9424 1.5545 351.5793 359.8980 358.7959 19.5177 8.6135 355.8649 345.7295 337.4238 
-4.5844 88.6383 187.3642 2.5724 359.9503 173.3700 2.0136 359.3098 357.9909 359.0348 11.6327 358.0774 1.8403 346.7353 2.1999 1.8837 12.6169 1.7755 339.2454 358.5238 8.0554 300.8175 30.5894 354.8398 15.7949 354.5855 322.3211 82.0860 1.1596 340.1367 22.4821 359.2133 356.0775 58.9614 42.7090 7.9094 338.6100 354.3278 29.4610 277.1673 353.4294 20.3886 1.9103 357.8141 357.8992 359.1226 9.5654 358.1868 359.7730 353.5544 21.9701 1.5485 351.5884 359.8985 358.7928 19.5090 8.6063 355.7671 345.7639 337.4225 
-4.5892 88.6400 187.3619 2.5720 359.9459 173.3885 2.0120 359.3182 357.9953 359.0345 11.6308 358.0819 1.8441 346.7234 2.1922 1.8585 12.6416 1.7682 339.2516 358.5238 8.0209 300.7865 30.4593 354.8716 15.7447 354.5762 322.2585 82.0643 1.1750 340.0325 22.4749 359.2121 356.0843 58.9753 42.6957 7.9068 338.5486 354.3136 29.4225 277.6048 353.0600 20.3449 1.9185 357.8363 357.8963 359.1246 9.5276 358.0742 359.7697 353.5808 22.0200 1.5469 351.5942 359.8976 358.7920 19.4959 8.5973 355.6367 345.7786 337.3975 
-4.5913 88.6414 187.3588 2.5675 359.9389 173.4148 2.0049 359.3272 357.9941 359.0311 11.6121 358.0816 1.8443 346.7257 2.1790 1.8477 12.6639 1.7561 339.2540 358.5360 8.0129 300.7928 30.3965 354.8761 15.6706 354.6093 322.2365 82.1000 1.1687 339.9994 22.4819 359.1980 356.0621 58.9348 42.7319 7.9479 338.6281 354.3272 29.4492 277.0678 353.4778 20.4237 1.9041 357.7814 357.8490 359.1337 9.6163 358.0933 359.6705 353.5111 21.9932 1.5437 351.5923 359.8909 358.7851 19.4989 8.5692 355.8142 345.7337 337.4419 
-4.5962 88.6439 187.3547 2.5605 359.9349 173.4359 1.9976 359.3304 358.0014 359.0253 11.6172 358.0891 1.8626 346.7183 2.1817 1.8350 12.6787 1.7580 339.2533 358.5321 8.0114 300.8043 30.3833 354.8717 15.6488 354.5996 322.2084 82.1412 1.1547 339.9931 22.4841 359.2074 356.0547 58.9038 42.7336 7.9895 338.6789 354.3521 29.4311 277.0014 353.5085 20.4265 1.8977 357.7924 357.8209 359.1244 9.5808 358.0802 359.7104 353.5309 22.0206 1.5319 351.5941 359.8753 358.7818 19.5001 8.5792 355.8646 345.7009 337.4362 
-4.6024 88.6456 187.3518 2.5533 359.9284 173.4525 1.9974 359.3350 358.0080 359.0113 11.6189 358.0974 1.8607 346.7060 2.1798 1.8411 12.6995 1.7556 339.2562 358.5211 8.0037 300.8047 30.3529 354.8865 15.6396 354.6048 322.1693 82.1536 1.1388 339.9803 22.4861 359.2058 356.0468 58.8661 42.7664 8.0337 338.6643 354.3569 29.3793 277.2492 353.2951 20.3749 1.8957 357.7990 357.8014 359.0929 9.5416 358.1095 359.7853 353.5705 22.0463 1.5168 351.5951 359.8779 358.7925 19.4932 8.5573 355.8782 345.6838 337.4198 
-4.6105 88.6469 187.3509 2.5432 359.9164 173.4703 2.0056 359.3391 358.0084 358.9851 11.6129 358.1006 1.8337 346.6910 2.1706 1.8664 12.7300 1.7466 339.2587 358.5373 7.9975 300.8124 30.2983 354.8933 15.5652 354.6312 322.1587 82.2105 1.0957 339.9211 22.4932 359.1913 356.0384 58.8214 42.8235 8.0725 338.6205 354.3463 29.3283 277.5481 353.0634 20.3147 1.8895 357.7762 357.7678 359.0558 9.5433 358.1653 359.8175 353.5869 22.0575 1.4944 351.5906 359.8904 358.8137 19.4915 8.4964 355.8896 345.6821 337.4287 
-4.6190 88.6481 187.3466 2.5307 359.9018 173.4954 2.0031 359.3261 358.0117 358.9733 11.6231 358.1050 1.8195 346.6765 2.1741 1.8813 12.7654 1.7492 339.2644 358.5263 7.9780 300.7864 30.2475 354.9386 15.5676 354.6028 322.0701 82.2100 1.1099 339.8872 22.4869 359.2081 356.0436 58.7827 42.8458 8.1090 338.7478 354.3812 29.3593 277.0191 353.5146 20.4229 1.8745 357.7399 357.7285 359.0752 9.5939 358.0696 359.8148 353.5462 22.0833 1.4702 351.5865 359.8842 358.8143 19.5326 8.4027 355.8379 345.6474 337.5092 
-4.6294 88.6481 187.3420 2.5174 359.8950 173.5278 2.0285 359.3408 357.9999 358.9170 11.5928 358.0987 1.8119 346.6988 2.1680 1.8693 12.7806 1.7448 339.2634 358.5415 7.9852 300.8040 30.2181 354.9589 15.5336 354.6201 322.0423 82.2216 1.0884 339.8722 22.5121 359.2098 356.0561 58.7445 42.8725 8.1145 338.7783 354.3818 29.3515 277.0244 353.5048 20.4371 1.8539 357.7248 357.7116 359.0836 9.6086 358.0327 359.8139 353.5471 22.0795 1.4410 351.5924 359.8618 358.8229 19.5251 8.3508 355.9930 345.5877 337.5691 
-4.6376 88.6486 187.3341 2.5061 359.8970 173.5542 2.0423 359.3559 357.9992 358.8759 11.5765 358.1023 1.7953 346.7073 2.1617 1.8732 12.7999 1.7402 339.2622 358.5380 8.0037 300.8162 30.2401 354.9816 15.5770 354.5917 321.9767 82.2040 1.1149 340.0173 22.5255 359.2341 356.0935 58.7357 42.8518 8.1051 338.8031 354.3912 29.3308 277.0864 353.4248 20.4516 1.8406 357.7250 357.6942 359.0748 9.6112 358.0262 359.8262 353.5489 22.0823 1.4150 351.6090 359.8572 358.8381 19.5146 8.2933 356.1187 345.5334 337.6076 
-4.6454 88.6494 187.3274 2.4967 359.8937 173.5798 2.0443 359.3616 358.0086 358.8556 11.5744 358.1142 1.7648 346.7003 2.1536 1.8976 12.8251 1.7330 339.2570 358.5241 8.0142 300.8133 30.2081 355.0123 15.6190 354.5670 321.8635 82.1627 1.1839 340.1574 22.5223 359.2401 356.1384 58.7603 42.8418 8.0732 338.7920 354.3820 29.3538 277.1300 353.4882 20.5367 1.8311 357.7172 357.6632 359.0600 9.6151 358.0204 359.8202 353.5444 22.1026 1.3921 351.6167 359.8515 358.8541 19.5091 8.2570 356.3650 345.3711 337.5274 
-4.6552 88.6501 187.3232 2.4881 359.8902 173.6177 2.0554 359.3783 358.0062 358.8311 11.5570 358.1139 1.7165 346.7032 2.1340 1.9298 12.8471 1.7140 339.2431 358.5466 8.0348 300.8501 30.2595 354.9971 15.6227 354.5709 321.8835 82.1817 1.1316 340.2324 22.5260 359.2235 356.1498 58.7498 42.8690 8.0661 338.7636 354.3747 29.3517 277.1563 353.5004 20.5180 1.8184 357.7051 357.6276 359.0552 9.6248 358.0023 359.7889 353.5348 22.1151 1.3700 351.6260 359.8403 358.8676 19.4997 8.2132 357.3038 344.7590 337.1533 
-4.6658 88.6505 187.3153 2.4715 359.8852 173.6525 2.0432 359.3942 358.0335 358.8121 11.5431 358.1436 1.7260 346.6951 2.1237 1.9118 12.8628 1.7040 339.2319 358.5311 8.0559 300.8729 30.3046 355.0109 15.6676 354.5516 321.8339 82.1725 1.1021 340.2865 22.5401 359.2206 356.1188 58.6710 42.9151 8.1332 338.8150 354.3980 29.3081 277.1296 353.4811 20.5530 1.7980 357.6933 357.5940 359.0429 9.6298 358.0075 359.8067 353.5285 22.1136 1.3396 351.6283 359.8220 358.8283 19.4005 8.6638 357.3265 344.6960 336.6813 
